<svg width="2725" height="417" viewBox="0 0 2725 417" fill="none" xmlns="http://www.w3.org/2000/svg">
<path d="M1243.49 416.75C1243.49 302.427 1353.18 209.75 1488.49 209.75" stroke="white" stroke-width="60"/>
<path d="M1242.99 1.5C1242.99 116.099 1150.09 209 1035.49 209" stroke="white" stroke-width="60"/>
<path d="M1035.49 209.5C1150.09 209.5 1242.99 302.401 1242.99 417" stroke="white" stroke-width="60"/>
<path d="M1488.49 208.75C1353.18 208.75 1243.49 116.073 1243.49 1.74997" stroke="white" stroke-width="60"/>
<path d="M1488.49 208.5C1537.65 208.5 1577.49 168.653 1577.49 119.5C1577.49 70.3467 1537.65 30.5 1488.49 30.5" stroke="white" stroke-width="60"/>
<path d="M1488.49 386.5C1537.65 386.5 1577.49 346.653 1577.49 297.5C1577.49 248.347 1537.65 208.5 1488.49 208.5" stroke="white" stroke-width="60"/>
<line x1="1214.49" y1="386.5" x2="1489.49" y2="386.5" stroke="white" stroke-width="60"/>
<line x1="1488.49" y1="31" x2="1213.49" y2="31" stroke="white" stroke-width="60"/>
<path d="M2617.7 416.347C2584.32 416.347 2557.65 408.71 2537.7 393.436C2517.87 378.163 2507.52 355.683 2506.66 325.998H2563.01C2563.99 339.794 2569.41 350.202 2579.27 357.223C2589.24 364.121 2601.81 367.57 2616.96 367.57C2631.74 367.57 2643.56 364.429 2652.43 358.147C2661.43 351.865 2665.92 343.674 2665.92 333.574C2665.92 324.335 2661.86 317.253 2653.73 312.326C2645.6 307.276 2634.02 302.965 2618.99 299.393L2588.88 292.002C2565.72 286.459 2547.43 277.652 2534 265.581C2520.7 253.387 2514.05 237.128 2514.05 216.804C2514.05 200.176 2518.54 185.641 2527.53 173.2C2536.53 160.637 2548.84 150.906 2564.49 144.008C2580.25 136.987 2598.17 133.477 2618.25 133.477C2638.7 133.477 2656.56 136.987 2671.83 144.008C2687.11 151.029 2698.99 160.76 2707.49 173.2C2716.11 185.641 2720.55 199.991 2720.8 216.25H2664.63C2663.64 205.534 2659.08 197.158 2650.96 191.122C2642.83 185.087 2631.8 182.069 2617.88 182.069C2603.72 182.069 2592.82 185.025 2585.18 190.937C2577.54 196.727 2573.72 204.117 2573.72 213.109C2573.72 222.84 2577.97 230.23 2586.47 235.28C2594.97 240.207 2605.2 244.087 2617.14 246.92L2641.72 253.017C2657.73 256.589 2671.96 261.824 2684.4 268.722C2696.84 275.497 2706.63 284.242 2713.77 294.958C2720.92 305.551 2724.49 318.485 2724.49 333.758C2724.49 359.009 2715.07 379.087 2696.22 393.991C2677.38 408.895 2651.2 416.347 2617.7 416.347Z" fill="white"/>
<path d="M2254.46 412.467V137.172H2312.48V258.56H2315.99L2415.2 137.172H2484.86L2382.87 260.408L2486.15 412.467H2416.31L2341.11 299.393L2312.48 334.313V412.467H2254.46Z" fill="white"/>
<path d="M2082.43 416.162C2058.04 416.162 2036.12 410.619 2016.66 399.533C1997.2 388.448 1981.8 372.374 1970.47 351.311C1959.13 330.248 1953.47 304.812 1953.47 275.004C1953.47 244.949 1959.13 219.391 1970.47 198.328C1981.8 177.265 1997.2 161.191 2016.66 150.105C2036.12 139.019 2058.04 133.477 2082.43 133.477C2106.82 133.477 2128.68 139.019 2148.02 150.105C2167.48 161.191 2182.88 177.265 2194.21 198.328C2205.55 219.391 2211.21 244.949 2211.21 275.004C2211.21 305.059 2205.55 330.617 2194.21 351.68C2182.88 372.62 2167.48 388.633 2148.02 399.718C2128.68 410.681 2106.82 416.162 2082.43 416.162ZM2012.41 275.004C2012.41 304.073 2018.75 326.306 2031.44 341.703C2044.25 357.1 2061.25 364.798 2082.43 364.798C2103.5 364.798 2120.37 357.1 2133.06 341.703C2145.87 326.306 2152.27 304.073 2152.27 275.004C2152.27 245.812 2145.87 223.517 2133.06 208.12C2120.37 192.6 2103.5 184.84 2082.43 184.84C2061.25 184.84 2044.25 192.6 2031.44 208.12C2018.75 223.517 2012.41 245.812 2012.41 275.004Z" fill="white"/>
<path d="M1786.46 416.162C1762.07 416.162 1740.14 410.619 1720.68 399.533C1701.22 388.448 1685.82 372.374 1674.49 351.311C1663.16 330.248 1657.49 304.812 1657.49 275.004C1657.49 244.949 1663.16 219.391 1674.49 198.328C1685.82 177.265 1701.22 161.191 1720.68 150.105C1740.14 139.019 1762.07 133.477 1786.46 133.477C1810.84 133.477 1832.71 139.019 1852.05 150.105C1871.51 161.191 1886.9 177.265 1898.24 198.328C1909.57 219.391 1915.23 244.949 1915.23 275.004C1915.23 305.059 1909.57 330.617 1898.24 351.68C1886.9 372.62 1871.51 388.633 1852.05 399.718C1832.71 410.681 1810.84 416.162 1786.46 416.162ZM1716.43 275.004C1716.43 304.073 1722.77 326.306 1735.46 341.703C1748.27 357.1 1765.27 364.798 1786.46 364.798C1807.52 364.798 1824.39 357.1 1837.08 341.703C1849.89 326.306 1856.3 304.073 1856.3 275.004C1856.3 245.812 1849.89 223.517 1837.08 208.12C1824.39 192.6 1807.52 184.84 1786.46 184.84C1765.27 184.84 1748.27 192.6 1735.46 208.12C1722.77 223.517 1716.43 245.812 1716.43 275.004Z" fill="white"/>
<path d="M773.633 409.239V140.605H879.283C909.813 140.605 933.491 148.598 950.318 164.584C967.265 180.57 975.739 201.844 975.739 228.407C975.739 246.797 971.652 262.542 963.479 275.643C955.306 288.624 943.587 298.36 928.322 304.85L985.294 409.239H922.553L871.711 314.045H830.244V409.239H773.633ZM830.244 268.432H868.646C901.098 268.432 917.325 255.09 917.325 228.407C917.325 215.066 913.298 204.849 905.245 197.758C897.192 190.666 884.932 187.121 868.466 187.121H830.244V268.432Z" fill="white"/>
<path d="M543.946 409.239H483.008L575.858 140.605H648.875L741.545 409.239H680.787L660.775 347.94H563.778L543.946 409.239ZM578.201 303.588H646.351L613.358 201.904H611.195L578.201 303.588Z" fill="white"/>
<path d="M240.523 187.481V140.605H461.019V187.481H379.167V409.239H322.556V187.481H240.523Z" fill="white"/>
<path d="M108.355 413.025C75.7823 413.025 49.7603 405.573 30.2889 390.669C10.9376 375.765 0.841358 353.83 0 324.863H54.9887C55.9503 338.325 61.2388 348.481 70.8543 355.332C80.59 362.063 92.8498 365.429 107.634 365.429C122.057 365.429 133.596 362.364 142.25 356.234C151.024 350.104 155.411 342.111 155.411 332.255C155.411 323.241 151.444 316.329 143.512 311.522C135.579 306.594 124.281 302.387 109.617 298.901L80.2295 291.69C57.633 286.281 39.7842 277.687 26.6831 265.908C13.7021 254.009 7.21164 238.143 7.21164 218.311C7.21164 202.085 11.5987 187.902 20.3729 175.763C29.147 163.503 41.1664 154.007 56.4311 147.277C71.8159 140.426 89.3041 137 108.896 137C128.848 137 146.276 140.426 161.18 147.277C176.084 154.128 187.683 163.623 195.976 175.763C204.39 187.902 208.717 201.905 208.957 217.77H154.149C153.187 207.313 148.74 199.14 140.807 193.251C132.874 187.361 122.117 184.417 108.535 184.417C94.7128 184.417 84.0757 187.301 76.6236 193.07C69.1716 198.72 65.4456 205.931 65.4456 214.705C65.4456 224.201 69.5923 231.412 77.8857 236.34C86.1791 241.148 96.1552 244.934 107.814 247.699L131.793 253.648C147.418 257.134 161.3 262.242 173.44 268.973C185.579 275.584 195.135 284.117 202.106 294.574C209.077 304.911 212.563 317.531 212.563 332.435C212.563 357.075 203.368 376.667 184.978 391.21C166.589 405.754 141.048 413.025 108.355 413.025Z" fill="white"/>
</svg>
